<svg xmlns="http://www.w3.org/2000/svg" width="256" height="256" viewBox="0 0 100 100"><rect width="100" height="100" rx="20" fill="#3f51b5"></rect><path fill="#fff" d="M48.94 32.86L48.94 32.86Q48.94 34.38 48.10 35.48Q47.26 36.59 46.20 37.19L46.20 37.19Q44.22 35.90 41.79 34.84Q39.36 33.77 35.79 33.77L35.79 33.77Q29.33 33.77 25.49 37.95Q21.65 42.13 21.65 50.04L21.65 50.04Q21.65 58.09 25.60 62.12Q29.56 66.15 36.24 66.15L36.24 66.15Q39.74 66.15 42.29 65.20Q44.83 64.25 46.81 62.96L46.81 62.96Q47.87 63.64 48.56 64.82Q49.24 66.00 49.24 67.52L49.24 67.52Q49.24 68.81 48.56 69.87Q47.87 70.94 46.28 71.77L46.28 71.77Q44.76 72.69 41.98 73.48Q39.21 74.28 35.10 74.28L35.10 74.28Q30.09 74.28 25.79 72.80Q21.50 71.32 18.31 68.32Q15.12 65.31 13.29 60.75Q11.47 56.19 11.47 50.04L11.47 50.04Q11.47 44.11 13.29 39.59Q15.12 35.07 18.27 31.99Q21.42 28.91 25.64 27.31Q29.86 25.72 34.57 25.72L34.57 25.72Q37.84 25.72 40.50 26.29Q43.16 26.86 45.06 27.85Q46.96 28.83 47.95 30.13Q48.94 31.42 48.94 32.86ZM63.22 73.22L63.22 73.22Q60.79 73.22 59.39 71.77Q57.98 70.33 57.98 67.90L57.98 67.90L57.98 26.93Q58.59 26.78 59.92 26.55Q61.25 26.33 62.54 26.33L62.54 26.33Q65.28 26.33 66.57 27.31Q67.86 28.30 67.86 30.96L67.86 30.96L67.86 65.09L87.39 65.09Q87.77 65.69 88.15 66.72Q88.53 67.75 88.53 68.96L88.53 68.96Q88.53 71.01 87.58 72.12Q86.63 73.22 84.96 73.22L84.96 73.22L63.22 73.22Z"></path></svg>